HIERARCHY
ROOT Hips
{
  OFFSET 265.287 66.7526 -254.649
  CHANNELS 6 Xposition Yposition Zposition Zrotation Xrotation Yrotation
  JOINT LeftUpLeg
  {
    OFFSET 8.64259 1.95398 -2.38835
    CHANNELS 3 Zrotation Xrotation Yrotation
    JOINT LeftLeg
    {
      OFFSET 43.7702 0 0
      CHANNELS 3 Zrotation Xrotation Yrotation
      JOINT LeftFoot
      {
        OFFSET 40.6238 0 0
        CHANNELS 3 Zrotation Xrotation Yrotation
        JOINT LeftToeBase
        {
          OFFSET 12.7242 0 0
          CHANNELS 3 Zrotation Xrotation Yrotation
          End Site
          {
            OFFSET 0 0 0
          }
        }
      }
    }
  }
  JOINT RightUpLeg
  {
    OFFSET -8.2249 1.95398 -2.59336
    CHANNELS 3 Zrotation Xrotation Yrotation
    JOINT RightLeg
    {
      OFFSET 43.5653 0 0
      CHANNELS 3 Zrotation Xrotation Yrotation
      JOINT RightFoot
      {
        OFFSET 40.6238 0 0
        CHANNELS 3 Zrotation Xrotation Yrotation
        JOINT RightToeBase
        {
          OFFSET 12.7242 0 0
          CHANNELS 3 Zrotation Xrotation Yrotation
          End Site
          {
            OFFSET 0 0 0
          }
        }
      }
    }
  }
  JOINT Spine
  {
    OFFSET 0.165834 0.87714 6.61349
    CHANNELS 3 Zrotation Xrotation Yrotation
    JOINT Spine1
    {
      OFFSET 7.38963 1.71661e-005 0
      CHANNELS 3 Zrotation Xrotation Yrotation
      JOINT Spine2
      {
        OFFSET 11.9445 1.14441e-005 0
        CHANNELS 3 Zrotation Xrotation Yrotation
        JOINT Spine3
        {
          OFFSET 14.7254 4.19617e-005 0
          CHANNELS 3 Zrotation Xrotation Yrotation
          JOINT Spine4
          {
            OFFSET 10.9679 0 0
            CHANNELS 3 Zrotation Xrotation Yrotation
            JOINT RightShoulder
            {
              OFFSET 2.46616 -1.6653 3.69651
              CHANNELS 3 Zrotation Xrotation Yrotation
              JOINT RightArm
              {
                OFFSET 13.0012 0 0
                CHANNELS 3 Zrotation Xrotation Yrotation
                JOINT RightForeArm
                {
                  OFFSET 28.7848 1.52588e-005 0
                  CHANNELS 3 Zrotation Xrotation Yrotation
                  JOINT RightHand
                  {
                    OFFSET 26.5688 1.52588e-005 0
                    CHANNELS 3 Zrotation Xrotation Yrotation
                    End Site
                    {
                      OFFSET 0 0 0
                    }
                  }
                }
              }
            }
            JOINT LeftShoulder
            {
              OFFSET 2.38034 -1.29275 -3.7523
              CHANNELS 3 Zrotation Xrotation Yrotation
              JOINT LeftArm
              {
                OFFSET 16.3182 6.10351e-005 0
                CHANNELS 3 Zrotation Xrotation Yrotation
                JOINT LeftForeArm
                {
                  OFFSET 27.0901 0 0
                  CHANNELS 3 Zrotation Xrotation Yrotation
                  JOINT LeftHand
                  {
                    OFFSET 24.5451 1.52588e-005 0
                    CHANNELS 3 Zrotation Xrotation Yrotation
                    End Site
                    {
                      OFFSET 0 0 0
                    }
                  }
                }
              }
            }
            JOINT Neck
            {
              OFFSET 5.0226 -0.0266342 0
              CHANNELS 3 Zrotation Xrotation Yrotation
              JOINT Head
              {
                OFFSET 6.69364 2.86102e-005 0
                CHANNELS 3 Zrotation Xrotation Yrotation
                End Site
                {
                  OFFSET 0 0 0
                }
              }
            }
          }
        }
      }
    }
  }
}
MOTION
Frames:	14
Frame Time:	0.0416667
-294.635 63.1403 335.003 151.861 -28.9166 107.008 147.673 53.7538 10.6563 -88.6978 36.8279 -12.127 -20.7732 -26.315 -11.5648 137.621 -26.5553 13.587 168.617 38.6152 -25.2484 -107.824 -35.2094 -4.06539 70.967 1.35782 4.27882 -31.6425 -71.6256 104.017 -11.7297 6.08807 -82.2517 16.3125 -19.2734 18.7627 4.63688 -18.445 19.5767 -18.547 -23.958 12.0247 1.46562 -23.958 12.0247 46.8364 -51.1936 -159.875 9.71259 21.4808 95.5564 149.68 -29.7443 -39.7376 2.91492 -1.89096 -60.6782 -130.44 -70.5851 34.9572 -22.0308 4.81714 18.3565 -1.15427 7.73696 -0.0106021 46.2734 -12.5541 -31.5376 -71.7881 -9.71031 14.697 83.0652 8.28346 12.9287 
-294.733 63.1721 335.101 151.62 -28.8817 107.178 147.353 53.604 11.0409 -88.7831 36.8738 -11.9307 -21.3112 -26.2019 -12.0671 137.751 -26.8139 13.3962 167.329 38.5409 -24.3494 -107.387 -35.3139 -3.54855 73.7731 -0.353882 4.50523 3.6672 -63.5197 137.367 -11.7453 6.10817 -82.2953 16.2728 -19.3307 18.6724 4.59941 -18.506 19.4896 -18.6008 -23.986 11.9165 1.4118 -23.9859 11.9165 46.8201 -51.1925 -159.895 9.64932 21.4236 95.5772 149.763 -29.6848 -39.6812 2.91808 -1.88905 -60.588 -130.422 -70.5986 34.9841 -22.0392 5.19287 18.1712 -1.36753 8.08858 -0.0106111 46.9539 -12.6975 -31.4276 -71.7884 -9.49131 14.5634 83.1987 8.73628 13.2569 
-295.012 63.2661 335.382 150.93 -28.798 107.676 146.463 53.1588 12.1367 -89.0384 36.9905 -11.357 -22.8162 -25.8578 -13.4774 138.09 -27.5543 12.8417 163.758 38.2452 -21.7718 -105.869 -35.5976 -2.05177 81.0065 -4.65865 5.44591 33.413 -24.5786 157.181 -11.7887 6.1657 -82.4222 16.1579 -19.4929 18.409 4.49095 -18.6789 19.2353 -18.756 -24.0625 11.6027 1.25665 -24.0625 11.6027 46.776 -51.1864 -159.95 9.46949 21.2583 95.6343 150.005 -29.5094 -39.519 2.92659 -1.8832 -60.3263 -130.371 -70.6378 35.0622 -22.0546 6.27963 17.6404 -1.9827 9.1249 -0.0106402 48.899 -13.0701 -31.0451 -71.781 -8.85169 14.1811 83.569 10.0582 14.2126 
-295.444 63.4273 335.819 149.862 -28.722 108.486 145.161 52.422 13.8218 -89.4437 37.135 -10.4412 -25.0803 -25.2629 -15.6084 138.524 -28.7079 11.9536 158.765 37.5251 -17.9114 -102.976 -35.9538 0.322933 89.9751 -9.65002 7.32211 53.8004 22.4647 143.979 -11.8511 6.25517 -82.6252 15.9761 -19.7374 17.9855 4.31929 -18.9408 18.8257 -18.9994 -24.17 11.1038 1.01323 -24.17 11.1038 46.7154 -51.1676 -160.035 9.19109 20.9957 95.7188 150.396 -29.2194 -39.2619 2.93759 -1.87241 -59.9068 -130.287 -70.7006 35.188 -22.0528 8.02343 16.8072 -2.96527 10.8321 -0.0106961 51.9307 -13.5247 -30.2399 -71.7434 -7.81873 13.5918 84.1034 12.1856 15.7398 
-296.052 63.5443 336.406 148.522 -28.7386 109.594 143.762 51.4437 15.8901 -90.1726 37.3101 -9.2491 -27.7045 -24.4392 -18.1655 138.927 -30.1841 10.7726 153.635 36.1767 -13.4792 -99.1146 -36.2217 3.41676 98.2429 -13.7868 9.70046 89.3516 40.6338 98.2932 -11.9195 6.36953 -82.8947 15.7386 -20.032 17.4187 4.09463 -19.2588 18.2759 -19.3136 -24.2824 10.4474 0.699077 -24.2824 10.4474 46.6506 -51.1248 -160.141 8.83421 20.6474 95.8207 150.927 -28.8127 -38.9202 2.94622 -1.85468 -59.3428 -130.177 -70.7857 35.3553 -21.9989 10.3773 15.7158 -4.28357 13.1718 -0.0107894 55.8038 -13.8378 -28.8266 -71.6454 -6.42093 12.8511 84.6983 15.0429 17.7754 
-296.924 63.35 337.172 147.052 -28.9506 110.991 142.731 50.3563 18.0578 -91.6568 37.593 -7.88533 -30.1203 -23.5175 -20.7905 139.192 -31.8764 9.35074 149.474 34.2105 -9.20466 -95.3371 -36.3599 6.95309 104.87 -16.7615 12.007 98.5735 17.7449 48.26 -11.9778 6.49978 -83.219 15.4586 -20.3368 16.7297 3.8294 -19.5921 17.6054 -19.6766 -24.3678 9.66849 0.336028 -24.3678 9.66851 46.5958 -51.0444 -160.262 8.41932 20.2247 95.93 151.591 -28.2856 -38.5047 2.94598 -1.82729 -58.6467 -130.031 -70.8902 35.5711 -21.8491 13.2944 14.406 -5.90372 16.0276 -0.0109304 60.1796 -13.7494 -26.6824 -71.456 -4.68928 12.0199 85.2257 18.5371 20.2649 
-297.935 63.1623 338.06 145.639 -29.4758 112.673 142.027 49.1316 20.3143 -93.3057 37.1398 -6.42819 -32.4479 -21.8851 -23.1034 139.25 -33.6704 7.75091 146.479 32.02 -5.20134 -91.578 -36.3072 10.5535 109.401 -18.6279 13.8633 59.3639 -4.44927 7.79532 -12.0071 6.63594 -83.5832 15.1527 -20.6043 15.9465 3.53858 -19.8922 16.8394 -20.0625 -24.3891 8.8114 -0.0498099 -24.3891 8.81141 46.5669 -50.9105 -160.389 7.96669 19.7389 96.0373 152.379 -27.6351 -38.0271 2.92861 -1.78694 -57.8312 -129.837 -71.0109 35.8486 -21.5526 16.7173 12.9101 -7.78059 19.1688 -0.0123344 64.6166 -13.0331 -23.8272 -71.1482 -2.6607 11.1603 85.5428 22.553 23.1696 
-299.075 63.0037 339.067 144.506 -30.4358 114.654 141.845 47.8498 22.5404 -94.8319 36.3413 -5.12757 -34.6697 -19.9832 -25.1877 139.075 -35.4563 6.0441 144.765 29.9914 -1.55376 -88.1711 -36.126 13.7772 112.185 -19.7655 15.1816 39.0327 -1.35814 -8.69828 -11.9869 6.76806 -83.9704 14.8384 -20.7831 15.1016 3.23849 -20.1066 16.0077 -20.443 -24.3075 7.92645 -0.430319 -24.3075 7.92645 46.5808 -50.7052 -160.515 7.4963 19.2015 96.1344 153.279 -26.862 -37.5016 2.88416 -1.72993 -56.9103 -129.593 -71.1483 36.1902 -21.0536 20.5678 11.2475 -9.84721 22.2542 -0.015894 68.629 -11.5969 -20.4526 -70.7042 -0.37983 10.3327 85.5046 26.9528 26.4687 
-300.339 62.8756 340.19 143.884 -31.9085 116.97 142.326 46.6015 24.6525 -96.0174 36.0029 -4.2085 -36.8987 -18.5382 -27.4151 138.681 -37.1453 4.30028 144.298 28.4707 1.74906 -85.3377 -35.9234 16.2448 113.657 -20.4662 16.0156 29.849 1.37353 -14.1909 -11.9011 6.88879 -84.3641 14.5305 -20.8321 14.2278 2.94233 -20.1925 15.1409 -20.7955 -24.0935 7.06052 -0.782858 -24.0935 7.06052 46.655 -50.4096 -160.633 7.02653 18.6237 96.2141 154.27 -25.976 -36.9459 2.80213 -1.65294 -55.8997 -129.295 -71.3038 36.6005 -20.2908 24.7419 9.41914 -12.0115 24.9137 -0.0198103 71.8339 -9.54432 -16.8491 -70.1178 2.10446 9.59059 84.9723 31.5833 30.1674 
-301.721 62.7747 341.423 143.979 -33.8874 119.67 143.515 45.4638 26.5989 -96.8486 35.6096 -3.75959 -38.9734 -17.1503 -29.4267 138.107 -38.678 2.58158 144.943 27.6792 4.7384 -83.182 -35.8043 17.7262 114.166 -20.8983 16.4517 24.5403 3.25933 -16.7484 -11.7435 6.9948 -84.7487 14.2381 -20.73 13.3575 2.6586 -20.1276 14.27 -21.1066 -23.7369 6.25266 -1.09394 -23.7369 6.25265 46.8055 -50.0053 -160.736 6.57312 18.0162 96.2711 155.324 -25.0005 -36.381 2.67346 -1.55389 -54.8179 -128.942 -71.4797 37.0826 -19.1982 29.1106 7.40224 -14.1628 26.8567 -0.0236816 74.0516 -7.11277 -13.2826 -69.8027 4.63676 8.95523 78.7274 36.8251 35.3221 
-303.291 62.6667 342.717 147.25 -35.2037 123.219 145.873 43.8253 26.5609 -96.2728 35.6607 -5.26501 -40.977 -15.9861 -31.3256 137.434 -40.0023 0.974164 146.83 27.7413 5.28993 -83.1729 -36.4497 16.1921 114.111 -21.196 16.5624 21.0534 4.60544 -18.1443 -11.531 7.00921 -84.7935 13.9125 -20.3568 13.0541 2.32854 -19.7685 13.9501 -21.3784 -23.2907 6.08918 -1.36578 -23.2907 6.08918 47.0471 -49.4751 -160.819 6.14945 17.3891 96.301 156.398 -23.9787 -35.8317 2.4932 -1.43314 -53.6872 -128.533 -71.679 37.6374 -17.7073 33.5192 5.15093 -16.1819 27.9266 -0.0270328 75.3013 -4.57455 -9.93787 -59.9192 9.93697 9.0226 -172.134 27.6718 18.8759 
-303.766 63.0297 344.657 115.576 -52.9634 116.444 137.531 47.5029 54.8543 -107.399 28.0081 11.7135 -41.3902 -13.4737 -31.2596 136.262 -41.378 -1.00385 145.297 24.55 36.4054 -65.8654 -26.5548 40.1419 111.369 -20.6128 16.7278 18.5416 5.44804 -18.3045 -11.007 6.89081 -89.1476 14.3044 -21.3969 4.93658 2.81005 -21.1569 5.91459 -21.2602 -21.8437 -2.05216 -1.24752 -21.8437 -2.05217 47.3915 -48.8037 -160.88 5.7665 16.7524 96.3007 157.432 -22.9797 -35.327 2.2646 -1.29512 -52.5349 -128.072 -71.9063 38.2637 -15.7531 37.7877 2.60197 -17.9545 28.1198 -0.0298221 75.7374 -2.15847 -6.91859 -49.9387 13.2764 9.5162 -74.8803 10.8163 4.40562 
-305.314 63.0705 346.23 114.245 -60.1657 118.452 139.935 47.0456 59.1101 -108.135 26.5614 12.5532 -42.711 -12.5158 -32.3351 135.408 -42.3377 -2.43837 147.148 26.4497 42.8364 -64.295 -26.2688 39.997 109.86 -20.6181 16.0184 16.6803 6.18662 -18.8396 -10.495 6.64098 -89.811 14.1376 -20.7141 3.20332 2.63405 -20.5523 4.15134 -21.2852 -20.6747 -3.45922 -1.27258 -20.6747 -3.45922 47.8461 -47.9795 -160.919 5.43213 16.1143 96.2686 158.357 -22.0949 -34.8962 2.00326 -1.1491 -51.391 -127.566 -72.1673 38.9557 -13.2873 41.7284 -0.311043 -19.3957 27.5672 -0.0320901 75.5652 -0.00651526 -4.26601 -49.2978 12.9038 9.75385 -83.9038 11.4638 4.15605 
-307.147 63.0355 347.744 124.321 -64.0398 126.837 145.484 47.3176 57.3959 -106.802 26.9653 9.41427 -44.0875 -12.0385 -33.509 134.662 -43.0645 -3.6057 149.716 30.5212 43.232 -65.7102 -28.4583 34.5535 108.451 -20.5543 15.2916 15.2358 6.78026 -19.2748 -9.99185 6.73606 -89.7294 13.8975 -19.6843 3.16519 2.37649 -19.5253 4.06201 -21.4036 -19.6874 -3.14455 -1.39097 -19.6874 -3.14455 48.4127 -46.9964 -160.937 5.15081 15.4808 96.2047 159.102 -21.4217 -34.5648 1.73688 -1.00832 -50.2836 -127.028 -72.4694 39.7031 -10.2998 45.1669 -3.6319 -20.4784 26.4598 -0.000916166 74.9784 1.81673 -1.98727 -48.2423 12.5763 10.2539 -88.2208 11.591 3.27651 
